<svg id="visual" viewBox="0 0 1500 2700" width="1500" height="2700" xmlns="http://www.w3.org/2000/svg" xmlns:xlink="http://www.w3.org/1999/xlink" version="1.1"><path d="M0 256L15.7 260.2C31.3 264.3 62.7 272.7 94 286.7C125.3 300.7 156.7 320.3 187.8 322.8C219 325.3 250 310.7 281.2 282.3C312.3 254 343.7 212 375 221.5C406.3 231 437.7 292 469 319.3C500.3 346.7 531.7 340.3 562.8 312.5C594 284.7 625 235.3 656.2 220.2C687.3 205 718.7 224 750 253.2C781.3 282.3 812.7 321.7 844 323.5C875.3 325.3 906.7 289.7 937.8 292.2C969 294.7 1000 335.3 1031.2 352.3C1062.3 369.3 1093.7 362.7 1125 328.3C1156.3 294 1187.7 232 1219 225.2C1250.3 218.3 1281.7 266.7 1312.8 278.3C1344 290 1375 265 1406.2 248.5C1437.3 232 1468.7 224 1484.3 220L1500 216L1500 0L1484.3 0C1468.7 0 1437.3 0 1406.2 0C1375 0 1344 0 1312.8 0C1281.7 0 1250.3 0 1219 0C1187.7 0 1156.3 0 1125 0C1093.7 0 1062.3 0 1031.2 0C1000 0 969 0 937.8 0C906.7 0 875.3 0 844 0C812.7 0 781.3 0 750 0C718.7 0 687.3 0 656.2 0C625 0 594 0 562.8 0C531.7 0 500.3 0 469 0C437.7 0 406.3 0 375 0C343.7 0 312.3 0 281.2 0C250 0 219 0 187.8 0C156.7 0 125.3 0 94 0C62.7 0 31.3 0 15.7 0L0 0Z" fill="#1976d2" stroke-linecap="round" stroke-linejoin="miter"></path></svg>