<svg xmlns="http://www.w3.org/2000/svg" width="39" height="39" fill="none"><g fill="#fff" clip-path="url(#a)"><path d="m0 24.45.853.853L3.98 28.43l.853.853.853-.853a3.2 3.2 0 0 1 4.549 0 3.2 3.2 0 0 1 0 4.549l-.853.853.853.853 3.127 3.127.853.853.853-.853 22.744-22.744.853-.853-.853-.853-3.127-3.127-.853-.853-.853.853a3.2 3.2 0 0 1-4.549 0 3.2 3.2 0 0 1 0-4.549l.853-.853-.853-.853L25.303.853 24.45 0l-.853.853L.853 23.597 0 24.45Zm3.412 0 13.93-13.93 10.804 10.803-13.931 13.93-1.528-1.528c1.387-2.175 1.149-5.106-.746-7-1.895-1.896-4.835-2.143-7.01-.756l-1.52-1.52.001.001ZM19.048 8.813l5.402-5.401 1.52 1.519c-1.388 2.175-1.14 5.115.754 7.01 1.895 1.895 4.826 2.133 7.001.746l1.528 1.528-5.401 5.402L19.048 8.813Z"/><path d="M18.379 21.657a.348.348 0 0 1-.295.055c-.107-.024-.184-.06-.262-.095-.163-.08-.333-.166-.516-.252-.192-.094-.367-.174-.517-.253-.19-.092-.368-.186-.545-.266a1.691 1.691 0 0 0-.43-.11 1.638 1.638 0 0 0-.436.037c-.154.042-.316.13-.462.276-.293.293-.444.586-.441.868-.003.29.191.622.581 1.012.4.4.746.593 1.041.583.295-.012.582-.156.86-.434l1.422-1.421Zm2.058-4.109c.698.698 1.079 1.343 1.135 1.94.062.593-.115 1.098-.519 1.502l-3.44 3.44c-.138.139-.32.264-.537.381-.217.117-.47.17-.765.154-.289-.01-.614-.098-.968-.271-.354-.173-.744-.466-1.164-.886-.419-.42-.713-.81-.886-1.164-.172-.353-.26-.678-.269-.968-.014-.264.04-.527.154-.765.1-.197.228-.377.38-.537l.55-.55c.28-.288.641-.485 1.035-.567.4-.086.787-.033 1.177.148.19.093.404.208.65.33.25.122.482.23.708.346.228.115.433.208.61.287.107.047.214.097.317.152l.191.065c.09.023.183.031.275.025.106-.006.21-.026.316-.06a.752.752 0 0 0 .3-.187l.223-.222a.804.804 0 0 0 .187-.287.772.772 0 0 0 .066-.394 1.235 1.235 0 0 0-.145-.48 2.339 2.339 0 0 0-.43-.553c-.397-.398-.738-.585-1.04-.568a1.22 1.22 0 0 0-.713.302c-.043.043-.106.035-.149-.008l-.883-.855a.108.108 0 0 1-.033-.078.11.11 0 0 1 .033-.078l.2-.2a1.87 1.87 0 0 1 .664-.437c.254-.096.52-.12.81-.083.289.039.606.148.932.334.333.166.673.437 1.03.793l-.002-.001Z"/><path fill-rule="evenodd" d="M18.45 16.62a1.45 1.45 0 0 0-.712.072 1.67 1.67 0 0 0-.592.39l-.002.001-.135.136.76.736a1.42 1.42 0 0 1 .763-.295h.005c.391-.023.786.219 1.19.624.185.175.341.377.465.598l.002.002c.093.173.15.363.168.558l-.199.018.199-.02a.97.97 0 0 1-.08.491 1 1 0 0 1-.231.352l-.222.22a.95.95 0 0 1-.38.237 1.46 1.46 0 0 1-.366.07 1.095 1.095 0 0 1-.336-.031l-.008-.002-.214-.073-.014-.008a4.405 4.405 0 0 0-.303-.145h-.002c-.177-.08-.386-.174-.618-.291l-.001-.001c-.15-.077-.3-.149-.46-.226l-.245-.118c-.124-.062-.24-.121-.347-.177l-.003-.001a16.793 16.793 0 0 0-.298-.151 1.612 1.612 0 0 0-1.049-.133h-.001a1.82 1.82 0 0 0-.933.51l-.002.002-.548.549a2.07 2.07 0 0 0-.344.486c-.1.207-.145.436-.133.666v.004c.008.255.086.552.249.886.16.328.438.7.847 1.11.41.411.783.688 1.11.848.336.164.634.242.888.251h.004c.264.014.48-.033.66-.13.206-.112.37-.226.489-.346l3.44-3.44c.36-.36.518-.805.462-1.34v-.002c-.05-.529-.392-1.132-1.078-1.818-.349-.347-.67-.602-.975-.754l-.01-.005a2.41 2.41 0 0 0-.86-.31Zm2.13.788c.709.71 1.128 1.395 1.191 2.06.068.65-.129 1.216-.577 1.663l-3.44 3.44a2.473 2.473 0 0 1-.583.416 1.615 1.615 0 0 1-.869.178c-.323-.012-.675-.11-1.047-.291-.38-.186-.788-.495-1.218-.925-.428-.429-.738-.837-.924-1.217-.18-.37-.278-.723-.289-1.048a1.78 1.78 0 0 1 .174-.86L13 20.82c.108-.213.248-.41.413-.584l.003-.003.55-.55a2.22 2.22 0 0 1 1.136-.622 2.012 2.012 0 0 1 1.302.163l.004.001c.097.048.2.1.307.156l.003.001c.107.056.22.114.34.173.08.04.159.077.237.115.162.078.32.154.474.233.223.112.424.204.6.282.105.046.211.096.316.15l.167.058a.69.69 0 0 0 .206.017h.002c.087-.005.174-.021.265-.05a.55.55 0 0 0 .22-.137v-.002L19.77 20a.601.601 0 0 0 .14-.216l.006-.012a.57.57 0 0 0 .049-.292v-.001a1.035 1.035 0 0 0-.121-.401 2.136 2.136 0 0 0-.393-.505l-.004-.004c-.387-.388-.673-.52-.885-.51a1.02 1.02 0 0 0-.59.25c-.14.133-.326.086-.425-.012l-.884-.856a.311.311 0 0 1 0-.44m0 0c.207-.211.657-.575.933-.682h.001c.29-.11.589-.135.906-.094h.002c.316.043.656.16 1 .355.358.18.713.467 1.076.829m-5.245 3.17c.16-.036.325-.05.489-.042h.014c.165.02.326.063.48.124l.008.004c.114.051.233.11.35.17l.2.098.006.003c.095.05.197.099.311.154.063.03.13.061.2.096.132.062.26.125.38.184a39.423 39.423 0 0 0 .14.07c.076.034.134.06.215.078l.008.002a.148.148 0 0 0 .125-.024l.26.303-1.423 1.421c-.301.302-.633.478-.993.493h-.001c-.383.013-.782-.234-1.19-.642-.395-.395-.642-.777-.639-1.153-.003-.357.188-.698.5-1.01.17-.17.362-.276.55-.327l.01-.002Zm.091.39a.85.85 0 0 0-.369.222c-.274.274-.384.518-.382.725v.004c-.002.203.138.485.522.869.393.392.686.53.893.524.23-.01.472-.122.726-.375l1.074-1.074c-.052-.02-.096-.04-.136-.057l-.014-.007-.006-.002-.143-.07c-.119-.06-.24-.12-.37-.181l-.003-.001-.187-.09a10.305 10.305 0 0 1-.332-.164l-.213-.106a9.406 9.406 0 0 0-.32-.155 1.494 1.494 0 0 0-.369-.095 1.441 1.441 0 0 0-.37.032Z" clip-rule="evenodd"/></g><defs><clipPath id="a"><path fill="#fff" d="M0 0h39v39H0z"/></clipPath></defs></svg>