<svg width="27" height="26" fill="none" xmlns="http://www.w3.org/2000/svg"><rect x="3.113" y="4.561" width="4.657" height="4.502" rx="1.5" stroke="#fff" stroke-width="2.5" stroke-linecap="round" stroke-linejoin="round"/><path d="M6.217 22.567H3.112v-4.501H1.56v-4.502c0-.829.695-1.5 1.552-1.5h1.553" stroke="#fff" stroke-width="2.5" stroke-linecap="round" stroke-linejoin="round"/><rect x="23.292" y="9.063" width="4.657" height="4.502" rx="1.5" transform="rotate(-180 23.292 9.063)" stroke="#fff" stroke-width="2.5" stroke-linecap="round" stroke-linejoin="round"/><path d="M20.187 22.567h3.104v-4.501h1.553v-4.502c0-.829-.695-1.5-1.553-1.5H21.74" stroke="#fff" stroke-width="2.5" stroke-linecap="round" stroke-linejoin="round"/><rect x="10.098" y="1.56" width="6.209" height="6.002" rx="2" stroke="#fff" stroke-width="2.5" stroke-linecap="round" stroke-linejoin="round"/><path clip-rule="evenodd" d="M17.083 24.068H9.322v-6.003H7.769v-4.501c0-1.657 1.39-3.001 3.105-3.001h4.656c1.715 0 3.105 1.344 3.105 3.001v4.502h-1.552v6.002z" stroke="#fff" stroke-width="2.5" stroke-linecap="round" stroke-linejoin="round"/></svg>