<svg id="visual" viewBox="0 0 1920 433" width="1920" height="433" xmlns="http://www.w3.org/2000/svg" xmlns:xlink="http://www.w3.org/1999/xlink" version="1.1"><path d="M0 120L64 136.3C128 152.7 256 185.3 384 199.3C512 213.3 640 208.7 768 192C896 175.3 1024 146.7 1152 138.2C1280 129.7 1408 141.3 1536 140.2C1664 139 1792 125 1856 118L1920 111L1920 0L1856 0C1792 0 1664 0 1536 0C1408 0 1280 0 1152 0C1024 0 896 0 768 0C640 0 512 0 384 0C256 0 128 0 64 0L0 0Z" fill="#0066FF" stroke-linecap="round" stroke-linejoin="miter"></path></svg>